<svg width="57" height="56" viewBox="0 0 57 56" fill="none" xmlns="http://www.w3.org/2000/svg">
<path d="M18 9.96332L39 21.98" stroke="#4CA4E4" stroke-width="4.66667" stroke-linecap="round" stroke-linejoin="round"/>
<path d="M49.5 18.6667C49.4992 17.8483 49.2831 17.0446 48.8736 16.336C48.464 15.6275 47.8754 15.0392 47.1667 14.63L30.8333 5.29666C30.1239 4.88708 29.3192 4.67145 28.5 4.67145C27.6808 4.67145 26.8761 4.88708 26.1667 5.29666L9.83333 14.63C9.12461 15.0392 8.53595 15.6275 8.12641 16.336C7.71687 17.0446 7.50084 17.8483 7.5 18.6667V37.3333C7.50084 38.1517 7.71687 38.9554 8.12641 39.664C8.53595 40.3725 9.12461 40.9608 9.83333 41.37L26.1667 50.7033C26.8761 51.1129 27.6808 51.3285 28.5 51.3285C29.3192 51.3285 30.1239 51.1129 30.8333 50.7033L47.1667 41.37C47.8754 40.9608 48.464 40.3725 48.8736 39.664C49.2831 38.9554 49.4992 38.1517 49.5 37.3333V18.6667Z" stroke="#4CA4E4" stroke-width="4.66667" stroke-linecap="round" stroke-linejoin="round"/>
<path d="M8.19971 16.3333L28.4997 28L48.7997 16.3333" stroke="#4CA4E4" stroke-width="4.66667" stroke-linecap="round" stroke-linejoin="round"/>
<path d="M28.5 51.3333V28" stroke="#4CA4E4" stroke-width="4.66667" stroke-linecap="round" stroke-linejoin="round"/>
</svg>
